/* XPM */
static char *_7347_703eb085c2c377ccd710e818d90a40818ab9d0747102e3e1e3f7d73fd62a436f[] = {
/* columns rows colors chars-per-pixel */
"128 128 3 1 ",
"  c #00B9B9",
". c #00BABA",
"X c None",
/* pixels */
"XXXXXXXXXXXXXXXXXXXXXXXXXXXXXXXXXXXXXXXXXXXXXXXXXXXXXXXXXXXXXXXXXXXXXXXXXXXXXXXXXXXXXXXXXXXXXXXXXXXXXXXXXXXXXXXXXXXXXXXXXXXXXXXX",
"XXXXXXXXXXXXXXXXXXXXXXXXXXXXXXXXXXXXXXXXXXXXXXXXXXXXXXXXXXXXXXXXXXXXXXXXXXXXXXXXXXXXXXXXXXXXXXXXXXXXXXXXXXXXXXXXXXXXXXXXXXXXXXXX",
"XXXXXXXXXXXXXXXXXXXXXXXXXXXXXXXXXXXXXXXXXXXXXXXXXXXXXXXXXXXXXXXXXXXXXXXXXXXXXXXXXXXXXXXXXXXXXXXXXXXXXXXXXXXXXXXXXXXXXXXXXXXXXXXX",
"XXXXXXXXXXXXXXXXXXXXXXXXXXXXXXXXXXXXXXXXXXXXXXXXXXXXXXXXXXXXXXXXXXXXXXXXXXXXXXXXXXXXXXXXXXXXXXXXXXXXXXXXXXXXXXXXXXXXXXXXXXXXXXXX",
"XXXXXXXXXXXXXXXXXXXXXXXXXXXXXXXXXXXXXXXXXXXXXXXXXXXXXXXXXXXXXXXXXXXXXXXXXXXXXXXXXXXXXXXXXXXXXXXXXXXXXXXXXXXXXXXXXXXXXXXXXXXXXXXX",
"XXXXXXXXXXXXXXXXXXXXXXXXXXXXXXXXXXXXXXXXXXXXXXXXXXXXXXXXXXXXXXXXXXXXXXXXXXXXXXXXXXXXXXXXXXXXXXXXXXXXXXXXXXXXXXXXXXXXXXXXXXXXXXXX",
"XXXXXXXXXXXXXXXXXXXXXXXXXXXXXXXXXXXXXXXXXXXXXXXXXXXXXXXXXXXXXXXXXXXXXXXXXXXXXXXXXXXXXXXXXXXXXXXXXXXXXXXXXXXXXXXXXXXXXXXXXXXXXXXX",
"XXXXXXXXXXXXXXXXXXXXXXXXXXXXXXXXXXXXXXXXXXXXXXXXXXXXXXXXXXXXXXXXXXXXXXXXXXXXXXXXXXXXXXXXXXXXXXXXXXXXXXXXXXXXXXXXXXXXXXXXXXXXXXXX",
"XXXXXXXXXXXXXXXXXXXXXXXXXXXXXXXXXXXXXXXXXXXXXXXXXXXXXXXXXXXXXXXXXXXXXXXXXXXXXXXXXXXXXXXXXXXXXXXXXXXXXXXXXXXXXXXXXXXXXXXXXXXXXXXX",
"XXXXXXXXXXXXXXXXXXXXXXXXXXXXXXXXXXXXXXXXXXXXXXXXXXXXXXXXXXXXXXXXXXXXXXXXXXXXXXXXXXXXXXXXXXXXXXXXXXXXXXXXXXXXXXXXXXXXXXXXXXXXXXXX",
"XXXXXXX................................XXXXXXXXXXXXXXXXXXXXXXXXXXXXXXXXXXXXXXXXXXXXXXXXX.................................XXXXXXX",
"XXXXXXX.................................XXXXXXXXXXXXXXXXXXXXXXXXXXXXXXXXXXXXXXXXXXXXXXX..................................XXXXXXX",
"XXXXXXX..................................XXXXXXXXXXXXXXXXXXXXXXXXXXXXXXXXXXXXXXXXXXXXX...................................XXXXXXX",
"XXXXXXX...................................XXXXXXXXXXXXXXXXXXXXXXXXXXXXXXXXXXXXXXXXXXXX...................................XXXXXXX",
"XXXXXXX....................................XXXXXXXXXXXXXXXXXXXXXXXXXXXXXXXXXXXXXXXXXX....................................XXXXXXX",
"XXXXXXX....................................XXXXXXXXXXXXXXXXXXXXXXXXXXXXXXXXXXXXXXXXXX....................................XXXXXXX",
"XXXXXXX.....................................XXXXXXXXXXXXXXXXXXXXXXXXXXXXXXXXXXXXXXXX.....................................XXXXXXX",
"XXXXXXX......................................XXXXXXXXXXXXXXXXXXXXXXXXXXXXXXXXXXXXXX......................................XXXXXXX",
"XXXXXXX......................................XXXXXXXXXXXXXXXXXXXXXXXXXXXXXXXXXXXXXX......................................XXXXXXX",
"XXXXXXX.......................................XXXXXXXXXXXXXXXXXXXXXXXXXXXXXXXXXXXX.......................................XXXXXXX",
"XXXXXXX.......................................XXXXXXXXXXXXXXXXXXXXXXXXXXXXXXXXXXXX.......................................XXXXXXX",
"XXXXXXX........................................XXXXXXXXXXXXXXXXXXXXXXXXXXXXXXXXXX........................................XXXXXXX",
"XXXXXXX........................................XXXXXXXXXXXXXXXXXXXXXXXXXXXXXXXXXX........................................XXXXXXX",
"XXXXXXX.........................................XXXXXXXXXXXXXXXXXXXXXXXXXXXXXXXX.........................................XXXXXXX",
"XXXXXXX......................................... XXXXXXXXXXXXXXXXXXXXXXXXXXXXXX..........................................XXXXXXX",
"XXXXXXX..........................................XXXXXXXXXXXXXXXXXXXXXXXXXXXXXX..........................................XXXXXXX",
"XXXXXXX...........................................XXXXXXXXXXXXXXXXXXXXXXXXXXXX...........................................XXXXXXX",
"XXXXXXX...........................................XXXXXXXXXXXXXXXXXXXXXXXXXXXX...........................................XXXXXXX",
"XXXXXXX............................................XXXXXXXXXXXXXXXXXXXXXXXXXX............................................XXXXXXX",
"XXXXXXX............................................XXXXXXXXXXXXXXXXXXXXXXXXX.............................................XXXXXXX",
"XXXXXXX.............................................XXXXXXXXXXXXXXXXXXXXXXXX.............................................XXXXXXX",
"XXXXXXX................XXXXXXXXXX...................XXXXXXXXXXXXXXXXXXXXXXX...................XXXXXXXXXXX................XXXXXXX",
"XXXXXXX................XXXXXXXXXX ...................XXXXXXXXXXXXXXXXXXXXXX...................XXXXXXXXXXX................XXXXXXX",
"XXXXXXX................XXXXXXXXXXX...................XXXXXXXXXXXXXXXXXXXXX ..................XXXXXXXXXXXX................XXXXXXX",
"XXXXXXX................XXXXXXXXXXXX.................. XXXXXXXXXXXXXXXXXXXX..................XXXXXXXXXXXXX................XXXXXXX",
"XXXXXXX................XXXXXXXXXXXX ...................XXXXXXXXXXXXXXXXXX...................XXXXXXXXXXXXX................XXXXXXX",
"XXXXXXX................XXXXXXXXXXXXX...................XXXXXXXXXXXXXXXXX...................XXXXXXXXXXXXXX................XXXXXXX",
"XXXXXXX................XXXXXXXXXXXXX....................XXXXXXXXXXXXXXXX...................XXXXXXXXXXXXXX................XXXXXXX",
"XXXXXXX................XXXXXXXXXXXXXX...................XXXXXXXXXXXXXXX.................. XXXXXXXXXXXXXXX................XXXXXXX",
"XXXXXXX................XXXXXXXXXXXXXX ...................XXXXXXXXXXXXXX..................XXXXXXXXXXXXXXXX................XXXXXXX",
"XXXXXXX................XXXXXXXXXXXXXXX...................XXXXXXXXXXXXX...................XXXXXXXXXXXXXXXX................XXXXXXX",
"XXXXXXX................XXXXXXXXXXXXXXXX...................XXXXXXXXXXXX..................XXXXXXXXXXXXXXXXX................XXXXXXX",
"XXXXXXX................XXXXXXXXXXXXXXXX................... XXXXXXXXXX ..................XXXXXXXXXXXXXXXXX................XXXXXXX",
"XXXXXXX................XXXXXXXXXXXXXXXXX...................XXXXXXXXX...................XXXXXXXXXXXXXXXXXX................XXXXXXX",
"XXXXXXX................XXXXXXXXXXXXXXXXX....................XXXXXXXX...................XXXXXXXXXXXXXXXXXX................XXXXXXX",
"XXXXXXX................XXXXXXXXXXXXXXXXXX....................XXXXXX...................XXXXXXXXXXXXXXXXXXX................XXXXXXX",
"XXXXXXX................XXXXXXXXXXXXXXXXXXX...................XXXXXX...................XXXXXXXXXXXXXXXXXXX................XXXXXXX",
"XXXXXXX................XXXXXXXXXXXXXXXXXXX....................XXXX...................XXXXXXXXXXXXXXXXXXXX................XXXXXXX",
"XXXXXXX................XXXXXXXXXXXXXXXXXXXX....................XX...................XXXXXXXXXXXXXXXXXXXXX................XXXXXXX",
"XXXXXXX................XXXXXXXXXXXXXXXXXXXX ................... X...................XXXXXXXXXXXXXXXXXXXXX................XXXXXXX",
"XXXXXXX................XXXXXXXXXXXXXXXXXXXXX.......................................XXXXXXXXXXXXXXXXXXXXXX................XXXXXXX",
"XXXXXXX................XXXXXXXXXXXXXXXXXXXXX.......................................XXXXXXXXXXXXXXXXXXXXXX................XXXXXXX",
"XXXXXXX................XXXXXXXXXXXXXXXXXXXXXX.....................................XXXXXXXXXXXXXXXXXXXXXXX................XXXXXXX",
"XXXXXXX................XXXXXXXXXXXXXXXXXXXXXXX....................................XXXXXXXXXXXXXXXXXXXXXXX................XXXXXXX",
"XXXXXXX................XXXXXXXXXXXXXXXXXXXXXXX...................................XXXXXXXXXXXXXXXXXXXXXXXX................XXXXXXX",
"XXXXXXX................XXXXXXXXXXXXXXXXXXXXXXXX................................. XXXXXXXXXXXXXXXXXXXXXXXX................XXXXXXX",
"XXXXXXX................XXXXXXXXXXXXXXXXXXXXXXXX ................................XXXXXXXXXXXXXXXXXXXXXXXXX................XXXXXXX",
"XXXXXXX................XXXXXXXXXXXXXXXXXXXXXXXXX............................... XXXXXXXXXXXXXXXXXXXXXXXXX................XXXXXXX",
"XXXXXXX................XXXXXXXXXXXXXXXXXXXXXXXXXX..............................XXXXXXXXXXXXXXXXXXXXXXXXXX................XXXXXXX",
"XXXXXXX................XXXXXXXXXXXXXXXXXXXXXXXXXX ............................XXXXXXXXXXXXXXXXXXXXXXXXXXX................XXXXXXX",
"XXXXXXX................XXXXXXXXXXXXXXXXXXXXXXXXXXX............................XXXXXXXXXXXXXXXXXXXXXXXXXXX................XXXXXXX",
"XXXXXXX................XXXXXXXXXXXXXXXXXXXXXXXXXXX...........................XXXXXXXXXXXXXXXXXXXXXXXXXXXX................XXXXXXX",
"XXXXXXX................XXXXXXXXXXXXXXXXXXXXXXXXXXXX..........................XXXXXXXXXXXXXXXXXXXXXXXXXXXX................XXXXXXX",
"XXXXXXX................XXXXXXXXXXXXXXXXXXXXXXXXXXXX.........................XXXXXXXXXXXXXXXXXXXXXXXXXXXXX................XXXXXXX",
"XXXXXXX................XXXXXXXXXXXXXXXXXXXXXXXXXXXXX........................XXXXXXXXXXXXXXXXXXXXXXXXXXXXX................XXXXXXX",
"XXXXXXX................XXXXXXXXXXXXXXXXXXXXXXXXXXXXXX..................... XXXXXXXXXXXXXXXXXXXXXXXXXXXXXX................XXXXXXX",
"XXXXXXX................XXXXXXXXXXXXXXXXXXXXXXXXXXXXXX.....................XXXXXXXXXXXXXXXXXXXXXXXXXXXXXXX................XXXXXXX",
"XXXXXXX................XXXXXXXXXXXXXXXXXXXXXXXXXXXXXXX....................XXXXXXXXXXXXXXXXXXXXXXXXXXXXXXX................XXXXXXX",
"XXXXXXX................XXXXXXXXXXXXXXXXXXXXXXXXXXXXXXX ..................XXXXXXXXXXXXXXXXXXXXXXXXXXXXXXXX................XXXXXXX",
"XXXXXXX................XXXXXXXXXXXXXXXXXXXXXXXXXXXXXXXX..................XXXXXXXXXXXXXXXXXXXXXXXXXXXXXXXX................XXXXXXX",
"XXXXXXX................XXXXXXXXXXXXXXXXXXXXXXXXXXXXXXXXX................XXXXXXXXXXXXXXXXXXXXXXXXXXXXXXXXX................XXXXXXX",
"XXXXXXX................XXXXXXXXXXXXXXXXXXXXXXXXXXXXXXXXX...............XXXXXXXXXXXXXXXXXXXXXXXXXXXXXXXXXX................XXXXXXX",
"XXXXXXX................XXXXXXXXXXXXXXXXXXXXXXXXXXXXXXXXXX..............XXXXXXXXXXXXXXXXXXXXXXXXXXXXXXXXXX................XXXXXXX",
"XXXXXXX................XXXXXXXXXXXXXXXXXXXXXXXXXXXXXXXXXX.............XXXXXXXXXXXXXXXXXXXXXXXXXXXXXXXXXXX................XXXXXXX",
"XXXXXXX................XXXXXXXXXXXXXXXXXXXXXXXXXXXXXXXXXXX...........XXXXXXXXXXXXXXXXXXXXXXXXXXXXXXXXXXXX................XXXXXXX",
"XXXXXXX................XXXXXXXXXXXXXXXXXXXXXXXXXXXXXXXXXXXX..........XXXXXXXXXXXXXXXXXXXXXXXXXXXXXXXXXXXX................XXXXXXX",
"XXXXXXX................XXXXXXXXXXXXXXXXXXXXXXXXXXXXXXXXXXXX.........XXXXXXXXXXXXXXXXXXXXXXXXXXXXXXXXXXXXX................XXXXXXX",
"XXXXXXX................XXXXXXXXXXXXXXXXXXXXXXXXXXXXXXXXXXXXX.......XXXXXXXXXXXXXXXXXXXXXXXXXXXXXXXXXXXXXX................XXXXXXX",
"XXXXXXX................XXXXXXXXXXXXXXXXXXXXXXXXXXXXXXXXXXXXX...... XXXXXXXXXXXXXXXXXXXXXXXXXXXXXXXXXXXXXX................XXXXXXX",
"XXXXXXX................XXXXXXXXXXXXXXXXXXXXXXXXXXXXXXXXXXXXXX.... XXXXXXXXXXXXXXXXXXXXXXXXXXXXXXXXXXXXXXX................XXXXXXX",
"XXXXXXX................XXXXXXXXXXXXXXXXXXX..XXXXXXXXXXXXXXXXX... XXXXXXXXXXXXXXXXXXXXXXXXXXXXXXXXXXXXXXXX................XXXXXXX",
"XXXXXXX................XXXXXXXXXXXXXXXXXXX.. XXXXXXXXXXXXXXXXX..XXXXXXXXXXXXXXXXXXXX..XXXXXXXXXXXXXXXXXXX................XXXXXXX",
"XXXXXXX................XXXXXXXXXXXXXXXXXX....XXXXXXXXXXXXXXXXXXXXXXXXXXXXXXXXXXXXXX...XXXXXXXXXXXXXXXXXXX................XXXXXXX",
"XXXXXXX................XXXXXXXXXXXXXXXXXX.... XXXXXXXXXXXXXXXXXXXXXXXXXXXXXXXXXXXX ....XXXXXXXXXXXXXXXXXX................XXXXXXX",
"XXXXXXX................XXXXXXXXXXXXXXXXX......XXXXXXXXXXXXXXXXXXXXXXXXXXXXXXXXXXXX.....XXXXXXXXXXXXXXXXXX................XXXXXXX",
"XXXXXXX................XXXXXXXXXXXXXXXXX...... XXXXXXXXXXXXXXXXXXXXXXXXXXXXXXXXXX...... XXXXXXXXXXXXXXXXX................XXXXXXX",
"XXXXXXX................XXXXXXXXXXXXXXXX........XXXXXXXXXXXXXXXXXXXXXXXXXXXXXXXXX........XXXXXXXXXXXXXXXXX................XXXXXXX",
"XXXXXXX................XXXXXXXXXXXXXXXX.........XXXXXXXXXXXXXXXXXXXXXXXXXXXXXXXX.........XXXXXXXXXXXXXXXX................XXXXXXX",
"XXXXXXX................XXXXXXXXXXXXXXX ..........XXXXXXXXXXXXXXXXXXXXXXXXXXXXXX..........XXXXXXXXXXXXXXXX................XXXXXXX",
"XXXXXXX................XXXXXXXXXXXXXXX...........XXXXXXXXXXXXXXXXXXXXXXXXXXXXX............XXXXXXXXXXXXXXX................XXXXXXX",
"XXXXXXX................XXXXXXXXXXXXXX.............XXXXXXXXXXXXXXXXXXXXXXXXXXXX............XXXXXXXXXXXXXXX................XXXXXXX",
"XXXXXXX................XXXXXXXXXXXXXX..............XXXXXXXXXXXXXXXXXXXXXXXXXX..............XXXXXXXXXXXXXX................XXXXXXX",
"XXXXXXX................XXXXXXXXXXXXX................XXXXXXXXXXXXXXXXXXXXXXXX...............XXXXXXXXXXXXXX................XXXXXXX",
"XXXXXXX................XXXXXXXXXXXX.................XXXXXXXXXXXXXXXXXXXXXXX.................XXXXXXXXXXXXX................XXXXXXX",
"XXXXXXX................XXXXXXXXXXXX..................XXXXXXXXXXXXXXXXXXXXXX .................XXXXXXXXXXXX................XXXXXXX",
"XXXXXXX................XXXXXXXXXXX...................XXXXXXXXXXXXXXXXXXXXXX..................XXXXXXXXXXXX................XXXXXXX",
"XXXXXXX................XXXXXXXXXXX...................XXXXXXXXXXXXXXXXXXXXX....................XXXXXXXXXXX................XXXXXXX",
"XXXXXXX................XXXXXXXXXX....................XXXXXXXXXXXXXXXXXXXXX..................... XXXXXXXXX................XXXXXXX",
"XXXXXXX..............................................XXXXXXXXXXXXXXXXXXXXXX......................... . ..................XXXXXXX",
"XXXXXXX.............................................XXXXXXXXXXXXXXXXXXXXXXX..............................................XXXXXXX",
"XXXXXXX............................................ XXXXXXXXXXXXXXXXXXXXXXXX ............................................XXXXXXX",
"XXXXXXX............................................XXXXXXXXXXXXXXXXXXXXXXXXXX............................................XXXXXXX",
"XXXXXXX...........................................XXXXXXXXXXXXXXXXXXXXXXXXXXX............................................XXXXXXX",
"XXXXXXX...........................................XXXXXXXXXXXXXXXXXXXXXXXXXXXX...........................................XXXXXXX",
"XXXXXXX..........................................XXXXXXXXXXXXXXXXXXXXXXXXXXXXX...........................................XXXXXXX",
"XXXXXXX.........................................XXXXXXXXXXXXXXXXXXXXXXXXXXXXXXX..........................................XXXXXXX",
"XXXXXXX.........................................XXXXXXXXXXXXXXXXXXXXXXXXXXXXXXXX.........................................XXXXXXX",
"XXXXXXX........................................XXXXXXXXXXXXXXXXXXXXXXXXXXXXXXXXX.........................................XXXXXXX",
"XXXXXXX.......................................XXXXXXXXXXXXXXXXXXXXXXXXXXXXXXXXXXX........................................XXXXXXX",
"XXXXXXX.......................................XXXXXXXXXXXXXXXXXXXXXXXXXXXXXXXXXXXX.......................................XXXXXXX",
"XXXXXXX......................................XXXXXXXXXXXXXXXXXXXXXXXXXXXXXXXXXXXXX ......................................XXXXXXX",
"XXXXXXX.....................................XXXXXXXXXXXXXXXXXXXXXXXXXXXXXXXXXXXXXXX......................................XXXXXXX",
"XXXXXXX.................................... XXXXXXXXXXXXXXXXXXXXXXXXXXXXXXXXXXXXXXX......................................XXXXXXX",
"XXXXXXX....................................XXXXXXXXXXXXXXXXXXXXXXXXXXXXXXXXXXXXXXXXX.....................................XXXXXXX",
"XXXXXXX................................... XXXXXXXXXXXXXXXXXXXXXXXXXXXXXXXXXXXXXXXXXX....................................XXXXXXX",
"XXXXXXX...................................XXXXXXXXXXXXXXXXXXXXXXXXXXXXXXXXXXXXXXXXXXX....................................XXXXXXX",
"XXXXXXX..................................XXXXXXXXXXXXXXXXXXXXXXXXXXXXXXXXXXXXXXXXXXXXX...................................XXXXXXX",
"XXXXXXX................................. XXXXXXXXXXXXXXXXXXXXXXXXXXXXXXXXXXXXXXXXXXXXX ..................................XXXXXXX",
"XXXXXXXXXXXXXXXXXXXXXXXXXXXXXXXXXXXXXXXXXXXXXXXXXXXXXXXXXXXXXXXXXXXXXXXXXXXXXXXXXXXXXXXXXXXXXXXXXXXXXXXXXXXXXXXXXXXXXXXXXXXXXXXX",
"XXXXXXXXXXXXXXXXXXXXXXXXXXXXXXXXXXXXXXXXXXXXXXXXXXXXXXXXXXXXXXXXXXXXXXXXXXXXXXXXXXXXXXXXXXXXXXXXXXXXXXXXXXXXXXXXXXXXXXXXXXXXXXXX",
"XXXXXXXXXXXXXXXXXXXXXXXXXXXXXXXXXXXXXXXXXXXXXXXXXXXXXXXXXXXXXXXXXXXXXXXXXXXXXXXXXXXXXXXXXXXXXXXXXXXXXXXXXXXXXXXXXXXXXXXXXXXXXXXX",
"XXXXXXXXXXXXXXXXXXXXXXXXXXXXXXXXXXXXXXXXXXXXXXXXXXXXXXXXXXXXXXXXXXXXXXXXXXXXXXXXXXXXXXXXXXXXXXXXXXXXXXXXXXXXXXXXXXXXXXXXXXXXXXXX",
"XXXXXXXXXXXXXXXXXXXXXXXXXXXXXXXXXXXXXXXXXXXXXXXXXXXXXXXXXXXXXXXXXXXXXXXXXXXXXXXXXXXXXXXXXXXXXXXXXXXXXXXXXXXXXXXXXXXXXXXXXXXXXXXX",
"XXXXXXXXXXXXXXXXXXXXXXXXXXXXXXXXXXXXXXXXXXXXXXXXXXXXXXXXXXXXXXXXXXXXXXXXXXXXXXXXXXXXXXXXXXXXXXXXXXXXXXXXXXXXXXXXXXXXXXXXXXXXXXXX",
"XXXXXXXXXXXXXXXXXXXXXXXXXXXXXXXXXXXXXXXXXXXXXXXXXXXXXXXXXXXXXXXXXXXXXXXXXXXXXXXXXXXXXXXXXXXXXXXXXXXXXXXXXXXXXXXXXXXXXXXXXXXXXXXX",
"XXXXXXXXXXXXXXXXXXXXXXXXXXXXXXXXXXXXXXXXXXXXXXXXXXXXXXXXXXXXXXXXXXXXXXXXXXXXXXXXXXXXXXXXXXXXXXXXXXXXXXXXXXXXXXXXXXXXXXXXXXXXXXXX",
"XXXXXXXXXXXXXXXXXXXXXXXXXXXXXXXXXXXXXXXXXXXXXXXXXXXXXXXXXXXXXXXXXXXXXXXXXXXXXXXXXXXXXXXXXXXXXXXXXXXXXXXXXXXXXXXXXXXXXXXXXXXXXXXX",
"XXXXXXXXXXXXXXXXXXXXXXXXXXXXXXXXXXXXXXXXXXXXXXXXXXXXXXXXXXXXXXXXXXXXXXXXXXXXXXXXXXXXXXXXXXXXXXXXXXXXXXXXXXXXXXXXXXXXXXXXXXXXXXXX"
};
