/* XPM */
static char *_520_8ff7c71170d374c2945767a46683e55289f6d73f8056da6a46209375c599a589[] = {
/* columns rows colors chars-per-pixel */
"64 64 3 1 ",
"  c #00B9B9",
". c #00BABA",
"X c None",
/* pixels */
"XXXXXXXXXXXXXXXXXXXXXXXXXXXXXXXXXXXXXXXXXXXXXXXXXXXXXXXXXXXXXXXX",
"XXXXXXXXXXXXXXXXXXXXXXXXXXXXXXXXXXXXXXXXXXXXXXXXXXXXXXXXXXXXXXXX",
"XXXXXXXXXXXXXXXXXXXXXXXXXXXXXXXXXXXXXXXXXXXXXXXXXXXXXXXXXXXXXXXX",
"XXXXXXXXXXXXXXXXXXXXXXXXXXXXXXXXXXXXXXXXXXXXXXXXXXXXXXXXXXXXXXXX",
"XXXXXXXXXXXXXXXXXXXXXXXXXXXXXXXXXXXXXXXXXXXXXXXXXXXXXXXXXXXXXXXX",
"XXX.................XXXXXXXXXXXXXXXXXXXXXXXX.................XXX",
"XXX..................XXXXXXXXXXXXXXXXXXXXXX..................XXX",
"XXX.................. XXXXXXXXXXXXXXXXXXXX...................XXX",
"XXX...................XXXXXXXXXXXXXXXXXXXX...................XXX",
"XXX....................XXXXXXXXXXXXXXXXXX....................XXX",
"XXX....................XXXXXXXXXXXXXXXXXX....................XXX",
"XXX.....................XXXXXXXXXXXXXXXX.....................XXX",
"XXX.....................XXXXXXXXXXXXXXXX.....................XXX",
"XXX......................XXXXXXXXXXXXXX......................XXX",
"XXX.......................XXXXXXXXXXXX ......................XXX",
"XXX........ XXXX..........XXXXXXXXXXXX.........XXXXX.........XXX",
"XXX........XXXXXX......... XXXXXXXXXX..........XXXXXX........XXX",
"XXX........XXXXXX..........XXXXXXXXXX.........XXXXXXX........XXX",
"XXX........XXXXXXX..........XXXXXXXX.........XXXXXXXX........XXX",
"XXX........XXXXXXXX.........XXXXXXX .........XXXXXXXX........XXX",
"XXX........XXXXXXXX..........XXXXXX.........XXXXXXXXX........XXX",
"XXX........XXXXXXXXX.........XXXXX .........XXXXXXXXX........XXX",
"XXX........XXXXXXXXX..........XXXX.........XXXXXXXXXX........XXX",
"XXX........XXXXXXXXXX..........XX..........XXXXXXXXXX........XXX",
"XXX........XXXXXXXXXXX......... X.........XXXXXXXXXXX........XXX",
"XXX........XXXXXXXXXXX....................XXXXXXXXXXX........XXX",
"XXX........XXXXXXXXXXXX..................XXXXXXXXXXXX........XXX",
"XXX........XXXXXXXXXXXX.................XXXXXXXXXXXXX........XXX",
"XXX........XXXXXXXXXXXXX................XXXXXXXXXXXXX........XXX",
"XXX........XXXXXXXXXXXXX ..............XXXXXXXXXXXXXX........XXX",
"XXX........XXXXXXXXXXXXXX..............XXXXXXXXXXXXXX........XXX",
"XXX........XXXXXXXXXXXXXXX............XXXXXXXXXXXXXXX........XXX",
"XXX........XXXXXXXXXXXXXXX............XXXXXXXXXXXXXXX........XXX",
"XXX........XXXXXXXXXXXXXXXX..........XXXXXXXXXXXXXXXX........XXX",
"XXX........XXXXXXXXXXXXXXXX.........XXXXXXXXXXXXXXXXX........XXX",
"XXX........XXXXXXXXXXXXXXXXX .......XXXXXXXXXXXXXXXXX........XXX",
"XXX........XXXXXXXXXXXXXXXXXX......XXXXXXXXXXXXXXXXXX........XXX",
"XXX........XXXXXXXXXXXXXXXXXX......XXXXXXXXXXXXXXXXXX........XXX",
"XXX........XXXXXXXXXXXXXXXXXXX....XXXXXXXXXXXXXXXXXXX........XXX",
"XXX........XXXXXXXXXXXXXXXXXXX ..XXXXXXXXXXXXXXXXXXXX........XXX",
"XXX........XXXXXXXXXX.XXXXXXXXX.XXXXXXXXXX XXXXXXXXXX........XXX",
"XXX........XXXXXXXXX.. XXXXXXXXXXXXXXXXXX .XXXXXXXXXX........XXX",
"XXX........XXXXXXXXX...XXXXXXXXXXXXXXXXXX...XXXXXXXXX........XXX",
"XXX........XXXXXXXXX... XXXXXXXXXXXXXXXX....XXXXXXXXX........XXX",
"XXX........XXXXXXXX..... XXXXXXXXXXXXXX......XXXXXXXX........XXX",
"XXX........XXXXXXX.......XXXXXXXXXXXXXX......XXXXXXXX........XXX",
"XXX........XXXXXXX........XXXXXXXXXXXX........XXXXXXX........XXX",
"XXX........XXXXXX.........XXXXXXXXXXX .........XXXXXX........XXX",
"XXX........XXXXXX..........XXXXXXXXXX..........XXXXXX........XXX",
"XXX.......................XXXXXXXXXXXX.......................XXX",
"XXX.......................XXXXXXXXXXXX.......................XXX",
"XXX..................... XXXXXXXXXXXXXX......................XXX",
"XXX.....................XXXXXXXXXXXXXXX .....................XXX",
"XXX.....................XXXXXXXXXXXXXXXX.....................XXX",
"XXX....................XXXXXXXXXXXXXXXXXX....................XXX",
"XXX...................XXXXXXXXXXXXXXXXXXX....................XXX",
"XXX...................XXXXXXXXXXXXXXXXXXXX...................XXX",
"XXX..................XXXXXXXXXXXXXXXXXXXXX ..................XXX",
"XXX.................XXXXXXXXXXXXXXXXXXXXXXX..................XXX",
"XXXXXXXXXXXXXXXXXXXXXXXXXXXXXXXXXXXXXXXXXXXXXXXXXXXXXXXXXXXXXXXX",
"XXXXXXXXXXXXXXXXXXXXXXXXXXXXXXXXXXXXXXXXXXXXXXXXXXXXXXXXXXXXXXXX",
"XXXXXXXXXXXXXXXXXXXXXXXXXXXXXXXXXXXXXXXXXXXXXXXXXXXXXXXXXXXXXXXX",
"XXXXXXXXXXXXXXXXXXXXXXXXXXXXXXXXXXXXXXXXXXXXXXXXXXXXXXXXXXXXXXXX",
"XXXXXXXXXXXXXXXXXXXXXXXXXXXXXXXXXXXXXXXXXXXXXXXXXXXXXXXXXXXXXXXX"
};
