/* XPM */
static char *_939_ccb6d9af2d6caa43bbd37f38df187a500a4161ac4b8b90352772723f6d286bed[] = {
/* columns rows colors chars-per-pixel */
"33 33 3 1 ",
"  c #00B9B9",
". c #00BABA",
"X c None",
/* pixels */
"XXXXXXXXXXXXXXXXXXXXXXXXXXXXXXXXX",
"XXXXXXXXXXXXXXXXXXXXXXXXXXXXXXXXX",
"XXXXXXXXXXXXXXXXXXXXXXXXXXXXXXXXX",
"XX.........XXXXXXXXXXX.........XX",
"XX......... XXXXXXXXXX.........XX",
"XX..........XXXXXXXXX .........XX",
"XX...........XXXXXXX ..........XX",
"XX...........XXXXXXX...........XX",
"XX....XXX.... XXXXX.....XXX....XX",
"XX....XXXX.....XXXX....XXXX....XX",
"XX....XXXX.....XXX.....XXXX....XX",
"XX....XXXXX.....X ....XXXXX....XX",
"XX....XXXXX .... .... XXXXX....XX",
"XX....XXXXXX.........XXXXXX....XX",
"XX....XXXXXXX........XXXXXX....XX",
"XX....XXXXXXX.......XXXXXXX....XX",
"XX....XXXXXXXX.....XXXXXXXX....XX",
"XX....XXXXXXXX.....XXXXXXXX....XX",
"XX....XXXXXXXXX...XXXXXXXXX....XX",
"XX....XXXXXXXXXX.XXXXXXXXXX....XX",
"XX....XXXXX XXXXXXXXXXXXXXX....XX",
"XX....XXXXX.XXXXXXXXX..XXXX....XX",
"XX....XXXX...XXXXXXX...XXXX....XX",
"XX....XXXX... XXXXXX....XXX....XX",
"XX.... XX.... XXXXX..... XX....XX",
"XX...........XXXXXXX...........XX",
"XX.......... XXXXXXX...........XX",
"XX..........XXXXXXXXX..........XX",
"XX.........XXXXXXXXXXX.........XX",
"XX.........XXXXXXXXXXX.........XX",
"XXXXXXXXXXXXXXXXXXXXXXXXXXXXXXXXX",
"XXXXXXXXXXXXXXXXXXXXXXXXXXXXXXXXX",
"XXXXXXXXXXXXXXXXXXXXXXXXXXXXXXXXX"
};
